# xmcd
#
# Track frame offsets: 
#        150
#        19355
#        46425
#        61940
#
# Disc length: 1051 seconds
#
# Revision: 1
# Processed by: cddbd v1.5.1PL2 Copyright (c) Steve Scherf et al.
# Submitted via: ExactAudioCopy v0.95b4
#
DISCID=30041904
DTITLE=J_LO - All I Have
DYEAR=2003
DGENRE=R and B
TTITLE0=All I Have
TTITLE1=Jenny From The Block (Everbots Showtime Mix)
TTITLE2=Jenny From The Block (Seismic Crew's Latin Disco Trip Radio Ed
TTITLE2=it)
TTITLE3=Loving You
EXTD=
EXTT0=
EXTT1=
EXTT2=blabal
EXTT3=
PLAYORDER=
